<svg width="1916" height="12" viewBox="0 0 1916 12" fill="none" xmlns="http://www.w3.org/2000/svg">
<path opacity="0.6" d="M1 1C8.14029 1 8.14029 11 15.2806 11C22.4209 11 22.4209 1 29.5612 1C36.7015 1 36.7015 11 43.825 11C50.9655 11 50.9655 1 58.0889 1C65.2293 1 65.2293 11 72.3527 11C79.4931 11 79.4931 1 86.633 1C93.7735 1 93.7735 11 100.914 11C108.054 11 108.054 1 115.194 1C122.335 1 122.335 11 129.475 11C136.615 11 136.615 1 143.756 1C150.896 1 150.896 11 158.036 11C165.176 11 165.176 1 172.317 1C179.457 1 179.457 11 186.581 11C193.721 11 193.721 1 200.844 1C207.985 1 207.985 11 215.108 11C222.249 11 222.249 1 229.389 1C236.529 1 236.529 11 243.67 11C250.809 11 250.809 1 257.95 1C265.09 1 265.09 11 272.231 11C279.371 11 279.371 1 286.511 1C293.651 1 293.651 11 300.792 11C307.932 11 307.932 1 315.072 1C322.213 1 322.213 11 329.336 11C336.477 11 336.477 1 343.6 1C350.741 1 350.741 11 357.864 11C365.004 11 365.004 1 372.144 1M372.567 1C379.707 1 379.707 11 386.848 11C393.988 11 393.988 1 401.128 1C408.269 1 408.269 11 415.392 11C422.533 11 422.533 1 429.656 1C436.796 1 436.796 11 443.92 11C451.06 11 451.06 1 458.2 1C465.341 1 465.341 11 472.481 11C479.621 11 479.621 1 486.761 1C493.902 1 493.902 11 501.042 11C508.182 11 508.182 1 515.323 1C522.463 1 522.463 11 529.603 11C536.744 11 536.744 1 543.884 1C551.024 1 551.024 11 558.148 11C565.288 11 565.288 1 572.412 1C579.552 1 579.552 11 586.675 11C593.816 11 593.816 1 600.956 1C608.096 1 608.096 11 615.237 11C622.377 11 622.377 1 629.517 1C636.658 1 636.658 11 643.798 11C650.938 11 650.938 1 658.078 1C665.219 1 665.219 11 672.359 11C679.499 11 679.499 1 686.64 1C693.78 1 693.78 11 700.903 11C708.044 11 708.044 1 715.167 1C722.308 1 722.308 11 729.431 11C736.571 11 736.571 1 743.711 1C750.852 1 750.852 11 757.992 11C765.133 11 765.133 1 772.273 1C779.413 1 779.413 11 786.553 11C793.694 11 793.694 1 800.817 1C807.958 1 807.958 11 815.081 11C822.222 11 822.222 1 829.345 1C836.485 1 836.485 11 843.625 11C850.766 11 850.766 1 857.906 1C865.046 1 865.046 11 872.187 11C879.327 11 879.327 1 886.467 1C893.607 1 893.607 11 900.748 11C907.888 11 907.888 1 915.029 1C922.169 1 922.169 11 929.309 11C936.449 11 936.449 1 943.573 1C950.713 1 950.713 11 957.837 11C964.977 11 964.977 1 972.101 1C979.241 1 979.241 11 986.381 11C993.521 11 993.521 1 1000.66 1C1007.8 1 1007.8 11 1014.94 11C1022.08 11 1022.08 1 1029.22 1C1036.36 1 1036.36 11 1043.5 11C1050.64 11 1050.64 1 1057.78 1C1064.92 1 1064.92 11 1072.06 11C1079.2 11 1079.2 1 1086.33 1C1093.47 1 1093.47 11 1100.59 11C1107.73 11 1107.73 1 1114.86 1C1122 1 1122 11 1129.14 11C1136.28 11 1136.28 1 1143.42 1M1144.28 1C1151.42 1 1151.42 11 1158.56 11C1165.7 11 1165.7 1 1172.84 1C1179.99 1 1179.99 11 1187.11 11C1194.25 11 1194.25 1 1201.37 1C1208.51 1 1208.51 11 1215.64 11C1222.78 11 1222.78 1 1229.92 1C1237.06 1 1237.06 11 1244.2 11C1251.34 11 1251.34 1 1258.48 1C1265.62 1 1265.62 11 1272.76 11C1279.9 11 1279.9 1 1287.04 1C1294.18 1 1294.18 11 1301.32 11C1308.46 11 1308.46 1 1315.6 1C1322.74 1 1322.74 11 1329.86 11C1337 11 1337 1 1344.13 1C1351.27 1 1351.27 11 1358.39 11C1365.53 11 1365.53 1 1372.67 1C1379.81 1 1379.81 11 1386.95 11C1394.09 11 1394.09 1 1401.23 1C1408.37 1 1408.37 11 1415.51 11C1422.65 11 1422.65 1 1429.79 1C1436.94 1 1436.94 11 1444.08 11C1451.22 11 1451.22 1 1458.36 1C1465.5 1 1465.5 11 1472.62 11C1479.76 11 1479.76 1 1486.88 1C1494.02 1 1494.02 11 1501.15 11C1508.29 11 1508.29 1 1515.43 1C1522.57 1 1522.57 11 1529.71 11M1530.57 11C1537.72 11 1537.72 1 1544.86 1C1552 1 1552 11 1559.14 11C1566.28 11 1566.28 1 1573.4 1C1580.54 1 1580.54 11 1587.66 11C1594.8 11 1594.8 1 1601.93 1C1609.07 1 1609.07 11 1616.21 11C1623.35 11 1623.35 1 1630.49 1C1637.63 1 1637.63 11 1644.77 11C1651.91 11 1651.91 1 1659.05 1C1666.19 1 1666.19 11 1673.33 11C1680.47 11 1680.47 1 1687.61 1C1694.75 1 1694.75 11 1701.89 11C1709.03 11 1709.03 1 1716.16 1C1723.3 1 1723.3 11 1730.42 11C1737.56 11 1737.56 1 1744.68 1C1751.82 1 1751.82 11 1758.96 11C1766.1 11 1766.1 1 1773.24 1C1780.38 1 1780.38 11 1787.52 11C1794.67 11 1794.67 1 1801.81 1C1808.95 1 1808.95 11 1816.09 11C1823.23 11 1823.23 1 1830.37 1C1837.51 1 1837.51 11 1844.65 11C1851.79 11 1851.79 1 1858.91 1C1866.05 1 1866.05 11 1873.17 11C1880.32 11 1880.32 1 1887.44 1C1894.58 1 1894.58 11 1901.72 11C1908.86 11 1908.86 1 1916 1" stroke="#F5F6F7" stroke-miterlimit="10" stroke-linecap="square"/>
</svg>
